<svg width="22" height="26" viewBox="0 0 22 26" fill="none" xmlns="http://www.w3.org/2000/svg">
<path d="M5.23494 25.5131C4.72232 25.1721 4.268 24.7507 3.88944 24.2651C3.47302 23.764 3.08719 23.2381 2.73406 22.6905C1.90538 21.4765 1.2555 20.1497 0.804375 18.7507C0.262437 17.1257 0 15.5681 0 14.0447C0 12.3433 0.368063 10.8581 1.08794 9.61009C1.62157 8.63463 2.40615 7.81948 3.3605 7.24896C4.28537 6.6745 5.34807 6.36013 6.43662 6.33896C6.81769 6.33896 7.228 6.39421 7.6635 6.49984C7.97631 6.5884 8.35737 6.72815 8.82294 6.90202C9.41525 7.13034 9.74106 7.27009 9.85156 7.30421C10.1985 7.43096 10.4902 7.48621 10.7193 7.48621C10.8932 7.48621 11.1386 7.43096 11.4172 7.34646C11.5741 7.29121 11.8698 7.19371 12.2931 7.01252C12.7124 6.85977 13.0422 6.72896 13.3047 6.63146C13.7069 6.51284 14.0961 6.40315 14.443 6.3479C14.8543 6.28306 15.2717 6.26588 15.6869 6.29671C16.4065 6.34374 17.1153 6.49622 17.7905 6.74927C18.8947 7.19371 19.7876 7.88759 20.4522 8.87396C20.1713 9.0471 19.9077 9.24681 19.6649 9.47034C19.1365 9.93881 18.6864 10.4888 18.3316 11.0994C17.8679 11.9339 17.6275 12.8739 17.6337 13.8286C17.6507 15.001 17.9514 16.0337 18.5437 16.9266C18.9791 17.5884 19.5451 18.1544 20.2069 18.5898C20.5457 18.8181 20.8374 18.975 21.1169 19.0806C20.9861 19.4868 20.8463 19.8801 20.6814 20.2701C20.3073 21.1447 19.8539 21.9831 19.3269 22.775C18.8573 23.4567 18.4892 23.9645 18.2097 24.3025C17.7742 24.8185 17.355 25.2125 16.9317 25.4871C16.4661 25.7959 15.9161 25.9608 15.3571 25.9608C14.9785 25.9754 14.6 25.9296 14.2358 25.8251C13.923 25.7195 13.6134 25.605 13.3087 25.4741C12.992 25.3287 12.6654 25.2057 12.3313 25.1061C11.5056 24.894 10.6398 24.8926 9.81337 25.102C9.47456 25.1995 9.14875 25.3133 8.827 25.453C8.37444 25.6431 8.07381 25.7707 7.89994 25.8251C7.553 25.9267 7.19306 25.9901 6.82906 26.0112C6.266 26.0112 5.74112 25.8503 5.22112 25.5245L5.23494 25.5131ZM12.6612 5.51346C11.9251 5.88152 11.2222 6.03834 10.5243 5.98715C10.4146 5.28434 10.5243 4.56527 10.816 3.77796C11.0643 3.11095 11.4313 2.49436 11.8991 1.95796C12.3931 1.39329 12.9925 0.930454 13.6638 0.595398C14.3788 0.227336 15.0605 0.0282734 15.7121 -0.000976562C15.7966 0.735148 15.7121 1.45909 15.4416 2.24152C15.1912 2.93319 14.8249 3.57722 14.3585 4.14602C13.8824 4.71147 13.2982 5.1761 12.6401 5.51265L12.6612 5.51346Z" fill="black"/>
</svg>
