<svg width="100" height="100" viewBox="0 0 100 100" fill="none" xmlns="http://www.w3.org/2000/svg">
<path d="M96.4793 49.9978C98.0236 48.1993 99.1059 46.0513 99.6321 43.7399C100.158 41.4285 100.113 39.0236 99.4991 36.7339C98.8856 34.4441 97.7225 32.3387 96.111 30.6001C94.4995 28.8616 92.4882 27.5425 90.2515 26.7573C90.6898 24.4276 90.5529 22.026 89.8529 19.7611C89.1529 17.4962 87.9108 15.4363 86.2344 13.7601C84.558 12.0839 82.4979 10.8421 80.2329 10.1424C77.9679 9.44263 75.5664 9.30611 73.2367 9.74466C72.4521 7.50744 71.1332 5.49554 69.3947 3.88364C67.6561 2.27174 65.5504 1.10857 63.2603 0.495106C60.9703 -0.118356 58.5651 -0.163562 56.2535 0.363412C53.942 0.890386 51.7941 1.97361 49.9962 3.51904C48.1978 1.97468 46.0497 0.892426 43.7383 0.36618C41.4269 -0.160066 39.022 -0.114414 36.7323 0.499173C34.4425 1.11276 32.3371 2.27575 30.5986 3.88726C28.86 5.49877 27.541 7.51012 26.7558 9.74683C24.4261 9.30898 22.0249 9.44611 19.7603 10.1463C17.4956 10.8465 15.4361 12.0887 13.7601 13.765C12.0842 15.4414 10.8426 17.5013 10.143 19.7661C9.44334 22.0309 9.30683 24.4322 9.74527 26.7617C7.50856 27.5469 5.4972 28.8659 3.88569 30.6045C2.27418 32.343 1.11119 34.4485 0.497598 36.7382C-0.11599 39.0279 -0.161649 41.4328 0.364597 43.7442C0.890843 46.0556 1.97311 48.2037 3.51748 50.0021C1.97264 51.8005 0.890041 53.9487 0.363645 56.2603C-0.162751 58.572 -0.117053 60.9771 0.496804 63.2671C1.11066 65.557 2.27411 67.6626 3.88617 69.4009C5.49823 71.1393 7.51021 72.458 9.74744 73.2425C9.30862 75.5721 9.44497 77.9736 10.1447 80.2385C10.8444 82.5034 12.0864 84.5633 13.7627 86.2394C15.439 87.9156 17.4991 89.1572 19.7641 89.8566C22.0291 90.5561 24.4306 90.6921 26.7601 90.253C27.5453 92.4897 28.8644 94.5011 30.6029 96.1126C32.3414 97.7241 34.4469 98.8871 36.7366 99.5007C39.0264 100.114 41.4312 100.16 43.7426 99.6337C46.054 99.1074 48.2021 98.0252 50.0005 96.4808C51.7989 98.0257 53.9472 99.1083 56.2588 99.6347C58.5704 100.161 60.9756 100.115 63.2655 99.5015C65.5555 98.8876 67.661 97.7242 69.3994 96.1121C71.1378 94.5001 72.4565 92.4881 73.241 90.2509C75.5706 90.6895 77.9721 90.5531 80.2371 89.8534C82.502 89.1536 84.562 87.9118 86.2383 86.2355C87.9145 84.5593 89.1564 82.4993 89.8562 80.2343C90.5559 77.9694 90.6923 75.5679 90.2536 73.2382C92.4905 72.4532 94.5021 71.1341 96.1136 69.3956C97.7252 67.657 98.8882 65.5514 99.5016 63.2615C100.115 60.9716 100.16 58.5666 99.6336 56.2552C99.107 53.9438 98.0242 51.7959 96.4793 49.9978Z" fill="#18C07A"/>
<path d="M41.023 69.0843L27.1286 55.1986C26.6013 54.6704 26.3051 53.9546 26.3051 53.2082C26.3051 52.4619 26.6013 51.746 27.1286 51.2179L28.8167 49.5277C29.3448 49.0004 30.0607 48.7042 30.807 48.7042C31.5533 48.7042 32.2692 49.0004 32.7973 49.5277L42.8975 59.6213L66.684 34.3439C67.1958 33.8008 67.9022 33.483 68.6481 33.4603C69.394 33.4375 70.1185 33.7117 70.6625 34.2226L72.396 35.8586C72.9398 36.3705 73.258 37.0774 73.2807 37.8238C73.3035 38.5703 73.0289 39.2952 72.5174 39.8393L45.0709 69.0215C44.8125 69.2969 44.5013 69.5175 44.1559 69.6703C43.8105 69.823 43.4379 69.9048 43.0603 69.9106C42.6827 69.9165 42.3077 69.8464 41.9577 69.7044C41.6077 69.5625 41.2899 69.3516 41.023 69.0843Z" fill="white"/>
</svg>
